<svg width="20" height="16" viewBox="0 0 20 16" fill="none" xmlns="http://www.w3.org/2000/svg">
<path d="M5 8.75C4.58579 8.75 4.25 9.08579 4.25 9.5C4.25 9.91421 4.58579 10.25 5 10.25V8.75ZM13 10.25C13.4142 10.25 13.75 9.91421 13.75 9.5C13.75 9.08579 13.4142 8.75 13 8.75V10.25ZM5 11.25C4.58579 11.25 4.25 11.5858 4.25 12C4.25 12.4142 4.58579 12.75 5 12.75V11.25ZM8 12.75C8.41421 12.75 8.75 12.4142 8.75 12C8.75 11.5858 8.41421 11.25 8 11.25V12.75ZM5 2.85C4.58579 2.85 4.25 3.18579 4.25 3.6C4.25 4.01421 4.58579 4.35 5 4.35V2.85ZM5.02 4.35C5.43421 4.35 5.77 4.01421 5.77 3.6C5.77 3.18579 5.43421 2.85 5.02 2.85V4.35ZM7.4 2.84998C6.98579 2.84998 6.65 3.18576 6.65 3.59998C6.65 4.01419 6.98579 4.34998 7.4 4.34998V2.84998ZM7.42 4.34998C7.83421 4.34998 8.17 4.01419 8.17 3.59998C8.17 3.18576 7.83421 2.84998 7.42 2.84998V4.34998ZM4.5 1.75H15.5V0.25H4.5V1.75ZM17.75 4V12H19.25V4H17.75ZM15.5 14.25H4.5V15.75H15.5V14.25ZM2.25 12V4H0.75V12H2.25ZM4.5 14.25C3.25736 14.25 2.25 13.2426 2.25 12H0.75C0.75 14.0711 2.42893 15.75 4.5 15.75V14.25ZM17.75 12C17.75 13.2426 16.7426 14.25 15.5 14.25V15.75C17.5711 15.75 19.25 14.0711 19.25 12H17.75ZM15.5 1.75C16.7426 1.75 17.75 2.75736 17.75 4H19.25C19.25 1.92893 17.5711 0.25 15.5 0.25V1.75ZM4.5 0.25C2.42893 0.25 0.75 1.92893 0.75 4H2.25C2.25 2.75736 3.25736 1.75 4.5 1.75V0.25ZM5 10.25H13V8.75H5V10.25ZM5 12.75H8V11.25H5V12.75ZM5 4.35H5.02V2.85H5V4.35ZM7.4 4.34998H7.42V2.84998H7.4V4.34998ZM1.5 6.75H18.5V5.25H1.5V6.75Z" fill="#51839A"/>
</svg>
