<svg width="32" height="32" viewBox="0 0 32 32" fill="none" xmlns="http://www.w3.org/2000/svg">
<path d="M19.335 15.0428H27.335M27.335 15.0428L24.6681 17.6411M27.335 15.0428L24.6681 12.4445M15.3356 25.4359H19.3362C20.809 25.4359 22.0023 24.242 22.0023 22.7692V21.5384M22.0009 8.54703V7.31626C22.0009 5.8435 20.8115 4.6496 19.3387 4.6496H6.0009M5.47845 25.1318L11.6223 27.7508C13.3813 28.5007 15.3346 27.21 15.3346 25.2978V11.1902C15.3346 9.58725 14.3777 8.13912 12.9032 7.51055L6.52415 4.79128C5.64462 4.41635 4.66797 5.06171 4.66797 6.01782V23.9053C4.66797 24.4396 4.98694 24.9223 5.47845 25.1318Z" stroke="#51839A" stroke-width="1.5" stroke-linecap="round" stroke-linejoin="round"/>
</svg>
