<svg width="16" height="16" viewBox="0 0 16 16" fill="none" xmlns="http://www.w3.org/2000/svg">
<g id="phone_call_outline_24px">
<path id="icon" d="M7.73334 3.06669C9.104 3.06669 10.4753 3.59002 11.5213 4.63602C12.5673 5.68202 13.0908 7.05336 13.0908 8.42403M6.88325 9.11677C6.08211 8.31562 5.47816 7.41861 5.07691 6.50859C4.992 6.31618 5.04198 6.0909 5.19057 5.94231L5.75138 5.3822C6.21084 4.92274 6.21084 4.27292 5.80958 3.87166L5.00569 3.06777C4.47091 2.53299 3.60403 2.53299 3.06925 3.06777L2.6228 3.51422C2.1154 4.02162 1.90382 4.7536 2.04077 5.47943C2.37903 7.26866 3.41846 9.2277 5.09539 10.9046C6.77232 12.5816 8.73137 13.621 10.5206 13.9593C11.2464 14.0962 11.9784 13.8846 12.4858 13.3772L12.9316 12.9315C13.4663 12.3967 13.4663 11.5298 12.9316 10.995L12.1284 10.1918C11.7271 9.79055 11.0766 9.79055 10.676 10.1918L10.0577 10.8108C9.90912 10.9594 9.68384 11.0094 9.49143 10.9245C8.58141 10.5225 7.6844 9.91792 6.88325 9.11677Z" stroke="white" stroke-width="1.5" stroke-linecap="round" stroke-linejoin="round"/>
</g>
</svg>
