<svg width="13" height="12" viewBox="0 0 13 12" fill="none" xmlns="http://www.w3.org/2000/svg">
<g id="info 1" clip-path="url(#clip0_44_288)">
<g id="Group">
<path id="Vector" d="M6.70703 5.5C6.70703 5.2929 6.53913 5.125 6.33203 5.125C6.12493 5.125 5.95703 5.2929 5.95703 5.5V8.5C5.95703 8.7071 6.12493 8.875 6.33203 8.875C6.53913 8.875 6.70703 8.7071 6.70703 8.5V5.5Z" fill="#B4B4B4"/>
<path id="Vector_2" fill-rule="evenodd" clip-rule="evenodd" d="M6.33203 0.625C3.3635 0.625 0.957031 3.03147 0.957031 6C0.957031 8.96855 3.3635 11.375 6.33203 11.375C9.30058 11.375 11.707 8.96855 11.707 6C11.707 3.03147 9.30058 0.625 6.33203 0.625ZM1.70703 6C1.70703 3.44568 3.77772 1.375 6.33203 1.375C8.88633 1.375 10.957 3.44568 10.957 6C10.957 8.5543 8.88633 10.625 6.33203 10.625C3.77772 10.625 1.70703 8.5543 1.70703 6Z" fill="#B4B4B4"/>
<path id="Vector_3" d="M6.83203 4C6.83203 4.27614 6.60818 4.5 6.33203 4.5C6.05588 4.5 5.83203 4.27614 5.83203 4C5.83203 3.72386 6.05588 3.5 6.33203 3.5C6.60818 3.5 6.83203 3.72386 6.83203 4Z" fill="#B4B4B4"/>
</g>
</g>
<defs>
<clipPath id="clip0_44_288">
<rect width="12" height="12" fill="white" transform="translate(0.332031)"/>
</clipPath>
</defs>
</svg>
