<svg width="80" height="80" viewBox="0 0 80 80" fill="none" xmlns="http://www.w3.org/2000/svg">
<g id="info (1) 1">
<g id="Group">
<path id="Vector" d="M42.5 36.6667C42.5 35.286 41.3807 34.1667 40 34.1667C38.6193 34.1667 37.5 35.286 37.5 36.6667V56.6667C37.5 58.0473 38.6193 59.1667 40 59.1667C41.3807 59.1667 42.5 58.0473 42.5 56.6667V36.6667Z" fill="#262626"/>
<path id="Vector_2" fill-rule="evenodd" clip-rule="evenodd" d="M39.9994 4.16666C20.2092 4.16666 4.16602 20.2098 4.16602 40C4.16602 59.7903 20.2092 75.8333 39.9994 75.8333C59.7897 75.8333 75.8327 59.7903 75.8327 40C75.8327 20.2098 59.7897 4.16666 39.9994 4.16666ZM9.16602 40C9.16602 22.9712 22.9706 9.16666 39.9994 9.16666C57.028 9.16666 70.8327 22.9712 70.8327 40C70.8327 57.0287 57.028 70.8333 39.9994 70.8333C22.9706 70.8333 9.16602 57.0287 9.16602 40Z" fill="#262626"/>
<path id="Vector_3" d="M43.3327 26.6667C43.3327 28.5076 41.8403 30 39.9993 30C38.1583 30 36.666 28.5076 36.666 26.6667C36.666 24.8257 38.1583 23.3333 39.9993 23.3333C41.8403 23.3333 43.3327 24.8257 43.3327 26.6667Z" fill="#262626"/>
</g>
</g>
</svg>
