<svg width="12" height="12" viewBox="0 0 12 12" fill="none" xmlns="http://www.w3.org/2000/svg">
<g id="padlock (1) 1">
<g id="Group">
<g id="Group_2">
<path id="Vector" d="M9.375 4.40625H8.53038V2.47898C8.53038 1.11206 7.39486 0 5.99913 0C4.60341 0 3.46788 1.11206 3.46788 2.47898V4.40625H2.625C1.84959 4.40625 1.21875 5.03709 1.21875 5.8125V10.5938C1.21875 11.3692 1.84959 12 2.625 12H9.375C10.1504 12 10.7812 11.3692 10.7812 10.5938V5.8125C10.7812 5.03709 10.1504 4.40625 9.375 4.40625ZM4.40538 2.47898C4.40538 1.629 5.12034 0.9375 5.99913 0.9375C6.87792 0.9375 7.59288 1.629 7.59288 2.47898V4.40625H4.40538V2.47898ZM9.84375 10.5938C9.84375 10.8522 9.63347 11.0625 9.375 11.0625H2.625C2.36653 11.0625 2.15625 10.8522 2.15625 10.5938V5.8125C2.15625 5.55403 2.36653 5.34375 2.625 5.34375H9.375C9.63347 5.34375 9.84375 5.55403 9.84375 5.8125V10.5938Z" fill="#B4B4B4"/>
</g>
</g>
<g id="Group_3">
<g id="Group_4">
<path id="Vector_2" d="M6 6.70312C5.52105 6.70312 5.13281 7.09137 5.13281 7.57031C5.13281 7.87612 5.29125 8.14477 5.53038 8.29917V9.32812C5.53038 9.58699 5.74024 9.79688 5.99913 9.79688C6.258 9.79688 6.46788 9.58699 6.46788 9.32812V8.30027C6.70798 8.14605 6.86719 7.87688 6.86719 7.57031C6.86719 7.09137 6.47895 6.70312 6 6.70312Z" fill="#B4B4B4"/>
</g>
</g>
</g>
</svg>
