<svg width="24" height="24" viewBox="0 0 24 24" fill="none" xmlns="http://www.w3.org/2000/svg">
<path d="M9.5 20C9.5 20 10 21 12 21C14 21 14.5 20 14.5 20M17.5 11V8.5C17.5 5.46243 15.0376 3 12 3C8.96243 3 6.5 5.46243 6.5 8.5V11L5.32843 12.1716C4.79799 12.702 4.5 13.4214 4.5 14.1716C4.5 15.7337 5.76633 17 7.32843 17H16.6716C18.2337 17 19.5 15.7337 19.5 14.1716C19.5 13.4214 19.202 12.702 18.6716 12.1716L17.5 11Z" stroke="#51839A" stroke-width="1.5" stroke-linecap="round" stroke-linejoin="round"/>
</svg>
