<svg width="80" height="80" viewBox="0 0 80 80" fill="none" xmlns="http://www.w3.org/2000/svg">
<g id="mortarboard 1">
<g id="Group">
<path id="Vector" d="M76.9535 22.1577L44.4908 8.24477C41.6368 7.0217 38.3616 7.02266 35.5041 8.24717L3.04842 22.1569C1.16816 22.9625 0 24.7337 0 26.7792C0 28.8236 1.16736 30.5939 3.04651 31.3992L6.88302 33.0435C6.87903 33.0831 6.87695 33.1233 6.87695 33.1639V51.3191C5.394 51.82 4.3229 53.2234 4.3229 54.8733C4.3229 55.8298 4.68334 56.7035 5.27476 57.3669C4.6206 58.0081 4.18625 58.8775 4.09654 59.8625L3.1774 69.9737C3.11467 70.6644 3.34693 71.354 3.81448 71.8661C4.28203 72.3782 4.948 72.6719 5.64143 72.6719H10.5067C11.2002 72.6719 11.8661 72.3782 12.3337 71.8661C12.8014 71.354 13.0335 70.6643 12.9708 69.9737L12.0516 59.8625C11.9621 58.8776 11.5276 58.0083 10.8734 57.3669C11.4648 56.7036 11.8253 55.83 11.8253 54.8733C11.8253 53.2236 10.7542 51.8201 9.27122 51.3191V34.0671L15.822 36.8746C15.8181 36.9142 15.816 36.9543 15.816 36.9948V46.1356C15.816 49.9506 18.4281 53.4798 23.1715 56.0734C27.6861 58.5419 33.6626 59.9015 39.9997 59.9015C46.3368 59.9015 52.3133 58.5419 56.8279 56.0734C61.5711 53.4798 64.1834 49.9506 64.1834 46.1356V36.9948C64.1834 36.9543 64.1813 36.9142 64.1773 36.8748L76.9514 31.4001C78.8317 30.5943 79.9998 28.8229 79.9998 26.7776C80 24.7333 78.8326 22.963 76.9535 22.1577ZM10.5656 70.2515C10.542 70.2775 10.5163 70.2775 10.5067 70.2775H5.64143C5.63169 70.2775 5.60615 70.2775 5.58252 70.2515C5.55874 70.2254 5.56113 70.2001 5.56193 70.1905L6.48107 60.0793C6.55658 59.25 7.24138 58.6246 8.07416 58.6246C8.90679 58.6246 9.59159 59.25 9.6671 60.0793L10.5862 70.1903C10.5872 70.2001 10.5894 70.2254 10.5656 70.2515ZM8.07416 56.2302C7.32599 56.2302 6.71732 55.6215 6.71732 54.8733C6.71732 54.1252 7.32599 53.5165 8.07416 53.5165C8.82234 53.5165 9.43101 54.1252 9.43101 54.8733C9.43101 55.6215 8.82234 56.2302 8.07416 56.2302ZM61.7891 41.0277C61.7891 44.1235 59.2411 47.146 54.7985 49.3204C54.2045 49.611 53.9589 50.3281 54.2495 50.9219C54.4572 51.3465 54.883 51.5931 55.3258 51.5931C55.5025 51.5931 55.6817 51.5539 55.8513 51.4709C58.3154 50.2649 60.2897 48.7957 61.6973 47.162C61.2485 49.6867 59.1521 52.0739 55.6795 53.9727C51.511 56.2521 45.9426 57.5072 40 57.5072C34.0574 57.5072 28.489 56.2521 24.3205 53.9727C20.8606 52.0808 18.7662 49.7039 18.3071 47.1893C19.5173 48.5843 21.1501 49.8601 23.1717 50.9655C27.6863 53.434 33.6628 54.7935 39.9998 54.7935C41.7727 54.7935 43.5409 54.6856 45.2553 54.473C45.9115 54.3916 46.3775 53.7938 46.2961 53.1375C46.2147 52.4813 45.6176 52.0152 44.9606 52.0968C43.3436 52.2974 41.6745 52.3991 39.9998 52.3991C34.0572 52.3991 28.4889 51.1439 24.3203 48.8646C20.3804 46.7103 18.2106 43.9271 18.2106 41.0277V37.8983L35.5092 45.3122C36.9353 45.9235 38.4665 46.229 39.9984 46.229C41.5321 46.229 43.0665 45.9227 44.4959 45.31L61.7891 37.8986V41.0277ZM76.0083 29.1994L43.5525 43.1089C41.2948 44.0766 38.7069 44.0774 36.4524 43.1113L11.6478 32.4805L34.3755 28.5278C35.3978 29.7376 37.4811 30.5299 39.9998 30.5299C43.5945 30.5299 46.3052 28.9171 46.3052 26.7786C46.3052 24.64 43.5945 23.0273 39.9998 23.0273C36.7351 23.0273 34.1999 24.3577 33.762 26.2039L7.86904 30.707C7.79306 30.7203 7.72043 30.7409 7.65083 30.7672L3.98991 29.1981C2.9908 28.7703 2.39443 27.8658 2.39443 26.7792C2.39443 25.6915 2.9916 24.7861 3.99167 24.3575L36.4473 10.4478C37.5773 9.96365 38.7897 9.72149 40.0018 9.72149C41.2117 9.72149 42.4214 9.96285 43.5476 10.4454L76.0103 24.3583C77.0092 24.7864 77.6056 25.6909 77.6056 26.7775C77.6056 27.8655 77.0084 28.7707 76.0083 29.1994ZM36.0889 26.7787C36.0889 26.43 37.4337 25.4219 39.9998 25.4219C42.566 25.4219 43.9107 26.43 43.9107 26.7787C43.9107 27.1275 42.566 28.1356 39.9998 28.1356C37.4337 28.1356 36.0889 27.1274 36.0889 26.7787Z" fill="#262626"/>
<path id="Vector_2" d="M48.9379 53.808C49.0271 53.808 49.1178 53.7979 49.2085 53.777C50.112 53.5682 51.0021 53.3259 51.854 53.0563C52.4844 52.8569 52.8338 52.1842 52.6344 51.5538C52.435 50.9235 51.7625 50.5737 51.1318 50.7733C50.3401 51.0237 49.5116 51.2493 48.6696 51.4439C48.0253 51.5926 47.6237 52.2355 47.7725 52.8797C47.9005 53.4335 48.3931 53.808 48.9379 53.808Z" fill="#262626"/>
</g>
</g>
</svg>
