<svg width="80" height="80" viewBox="0 0 80 80" fill="none" xmlns="http://www.w3.org/2000/svg">
<g id="transportation 1" clip-path="url(#clip0_5_447)">
<g id="Group">
<g id="Group_2">
<path id="Vector" d="M22.6671 47.9992H12.0006V50.6658H22.6671V47.9992Z" fill="#262626"/>
</g>
</g>
<g id="Group_3">
<g id="Group_4">
<path id="Vector_2" d="M79.8588 63.4026L75.8589 55.4028C75.6331 54.9509 75.1712 54.6658 74.6663 54.6658H66.6664V50.6658C66.6664 49.9295 66.0694 49.3325 65.3331 49.3325H38.6669C37.9305 49.3325 37.3335 49.9295 37.3335 50.6658V74.6654C37.3335 75.4018 37.9305 75.9987 38.6669 75.9987H44.1894C44.9114 78.8397 47.7999 80.5573 50.6407 79.8353C52.526 79.3562 53.9981 77.884 54.4773 75.9987H64.1891C64.9111 78.8397 67.7995 80.5573 70.6403 79.8353C72.5256 79.3562 73.9978 77.884 74.4769 75.9987H78.6662C79.4025 75.9987 79.9995 75.4018 79.9995 74.6654V63.9989C79.9995 63.7919 79.9513 63.5878 79.8588 63.4026ZM49.3333 77.3321C47.8605 77.3321 46.6667 76.1382 46.6667 74.6654C46.6667 73.1926 47.8605 71.9988 49.3333 71.9988C50.8062 71.9988 52 73.1926 52 74.6654C51.9985 76.1376 50.8055 77.3306 49.3333 77.3321ZM63.9998 73.3321H54.4773C53.8728 70.9835 51.7585 69.3395 49.3333 69.3322C46.9082 69.3395 44.7939 70.9835 44.1894 73.3321H40.0002V51.9991H63.9998V73.3321ZM71.9996 57.3324H73.8421L76.5089 62.6656H71.9996V57.3324ZM69.333 77.3321C67.8602 77.3321 66.6664 76.1382 66.6664 74.6654C66.6664 73.1926 67.8602 71.9988 69.333 71.9988C70.8058 71.9988 71.9996 73.1926 71.9996 74.6654C71.9981 76.1376 70.8051 77.3306 69.333 77.3321ZM77.3329 73.3321H74.4769C73.8724 70.9835 71.7581 69.3395 69.333 69.3322C68.3939 69.3375 67.4734 69.5937 66.6664 70.0742V57.3324H69.333V63.9989C69.333 64.7353 69.93 65.3323 70.6663 65.3323H77.3329V73.3321Z" fill="#262626"/>
</g>
</g>
<g id="Group_5">
<g id="Group_6">
<path id="Vector_3" d="M31.999 18.6664H29.3337V21.333H31.999V18.6664Z" fill="#262626"/>
</g>
</g>
<g id="Group_7">
<g id="Group_8">
<path id="Vector_4" d="M37.3322 18.6664H34.6669V21.333H37.3322V18.6664Z" fill="#262626"/>
</g>
</g>
<g id="Group_9">
<g id="Group_10">
<path id="Vector_5" d="M42.6655 18.6664H40.0002V21.333H42.6655V18.6664Z" fill="#262626"/>
</g>
</g>
<g id="Group_11">
<g id="Group_12">
<path id="Vector_6" d="M47.9987 18.6664H45.3334V21.333H47.9987V18.6664Z" fill="#262626"/>
</g>
</g>
<g id="Group_13">
<g id="Group_14">
<path id="Vector_7" d="M73.4488 22.2705L69.318 18.139C66.2469 15.0717 62.087 13.3441 57.7465 13.3331H47.4057L41.131 3.29361C40.8871 2.90378 40.46 2.66679 40.0002 2.66662H36.0002C35.2636 2.66696 34.6666 3.26445 34.6669 4.00127C34.6669 4.10993 34.6803 4.2181 34.7066 4.32359L36.959 13.3331H26.3259L22.6111 0.950484C22.442 0.386327 21.9226 0 21.3338 0H14.6672C13.9309 0 13.3339 0.59699 13.3339 1.33331V14.6664H13.3464C13.3421 15.0184 13.4781 15.3577 13.7246 15.6091L22.0578 23.9423C25.4959 27.4029 30.1755 29.3438 35.0536 29.3328H35.4167L32.1038 36.7917C31.805 37.4645 32.1081 38.2524 32.7809 38.5514C32.8201 38.5687 32.8599 38.5842 32.9006 38.5977L36.8979 39.931C37.4579 40.1175 38.0737 39.9138 38.4122 39.4303L45.4761 29.3328H70.5198C72.8038 29.337 74.6586 27.489 74.6629 25.2051C74.6649 24.1043 74.2279 23.0481 73.4488 22.2705ZM39.2612 5.33324L44.2611 13.3331H39.708L37.7079 5.33324H39.2612ZM16.0006 2.66662H20.3417L23.5416 13.3331H16.0006V2.66662ZM36.7977 37.0865L35.1369 36.5326L39.519 26.6662H44.0873L36.7977 37.0865ZM71.8876 25.7522C71.6655 26.3112 71.1211 26.6749 70.5198 26.6662H47.3415L47.7395 26.0972C48.1615 25.4937 48.0144 24.6623 47.4109 24.2403C47.1869 24.0838 46.9204 23.9996 46.647 23.9996H38.6524C38.1252 23.9996 37.6475 24.3101 37.4337 24.7919L36.6012 26.6662H35.0536C30.8831 26.6754 26.8824 25.0156 23.9431 22.057L17.8859 15.9997H57.7465C60.6535 16.0122 63.4816 16.9459 65.8247 18.6664H55.9999V21.333H68.7399L71.5666 24.1598C71.9936 24.5726 72.1215 25.2062 71.8876 25.7522Z" fill="#262626"/>
</g>
</g>
<g id="Group_15">
<g id="Group_16">
<path id="Vector_8" d="M32.6845 76.3522C31.845 75.4507 30.719 74.8679 29.4982 74.7031L34.5894 60.4475C34.8368 59.753 34.4743 58.9897 33.7798 58.7423C33.7718 58.7395 33.7636 58.7367 33.7554 58.734L30.5042 57.6502L27.9789 43.7609C27.8637 43.1268 27.3114 42.6659 26.6671 42.6659H21.3338V38.666C21.3338 37.9297 20.7368 37.3327 20.0005 37.3327H14.6673C13.9309 37.3327 13.3339 37.9297 13.3339 38.666V42.6659H8.0007C7.35621 42.6659 6.80405 43.1269 6.68889 43.7609L4.1636 57.6502L0.912316 58.734C0.213161 58.9678 -0.163833 59.7242 0.0699963 60.4232C0.0726629 60.4313 0.0754962 60.4393 0.0783295 60.4475L5.16958 74.7036C3.95077 74.8696 2.82678 75.4521 1.98846 76.3522C1.50597 76.9599 0.776651 77.3195 0.0008308 77.332V79.9987C1.44564 79.9908 2.82145 79.3795 3.79577 78.3125C4.27826 77.7044 5.00791 77.3445 5.78407 77.332C6.06573 77.3297 6.34523 77.3819 6.60722 77.4855C6.61839 77.4905 6.62555 77.5012 6.63689 77.5059C7.05505 77.7142 7.43471 77.992 7.75987 78.3275C8.74419 79.3853 10.1215 79.99 11.5665 79.9987C13.0109 79.9907 14.3864 79.379 15.3601 78.3119C16.1989 77.2162 17.767 77.0079 18.8627 77.8465C19.0373 77.9802 19.1937 78.1365 19.3275 78.3112C20.3002 79.3787 21.675 79.9905 23.1191 79.9987C24.5633 79.99 25.9396 79.385 26.9224 78.3269C27.2447 77.9939 27.6209 77.7174 28.035 77.5092C28.047 77.5042 28.0547 77.4929 28.0664 77.4875C28.329 77.3825 28.6095 77.3299 28.8924 77.3322C29.6667 77.3447 30.3945 77.7044 30.8748 78.312C31.848 79.379 33.2229 79.9905 34.6669 79.9988V77.3322C33.8926 77.3195 33.1648 76.9599 32.6845 76.3522ZM16.0006 39.9993H18.6672V42.6659H16.0006V39.9993ZM16.0006 74.8392C15.0689 75.1274 14.2261 75.6481 13.5514 76.3522C12.7105 77.449 11.1395 77.6564 10.0427 76.8154C9.86867 76.682 9.713 76.5262 9.5795 76.3522C9.16568 75.9479 8.70685 75.5922 8.21203 75.2924L3.04761 60.833L16.0006 56.5157V74.8392ZM16.9121 53.4008L7.04871 56.6885L9.11335 45.3326H25.5544L27.619 56.6885L17.7557 53.4008C17.4819 53.3096 17.1859 53.3096 16.9121 53.4008ZM26.4531 75.3011C25.9641 75.5996 25.5104 75.9524 25.1007 76.3529C24.2636 77.4474 22.6976 77.6559 21.6031 76.8187C21.428 76.6847 21.2713 76.528 21.1373 76.3529C20.4587 75.6416 19.6078 75.1176 18.6674 74.8317V56.5157L31.6203 60.833L26.4531 75.3011Z" fill="#262626"/>
</g>
</g>
<g id="Group_17">
<g id="Group_18">
<path id="Vector_9" d="M53.3319 18.6664H50.6667V21.333H53.3319V18.6664Z" fill="#262626"/>
</g>
</g>
</g>
<defs>
<clipPath id="clip0_5_447">
<rect width="80" height="80" fill="white"/>
</clipPath>
</defs>
</svg>
