<svg width="80" height="80" viewBox="0 0 80 80" fill="none" xmlns="http://www.w3.org/2000/svg">
<g id="diet 1">
<g id="Group">
<g id="Group_2">
<path id="Vector" d="M30.9319 31.0728C30.258 30.3352 29.2985 29.9032 28.2996 29.8877C26.2903 29.8619 24.6282 31.4638 24.5941 33.4714C24.5832 34.1186 25.0989 34.6521 25.746 34.663C25.7528 34.6631 25.7594 34.6631 25.7663 34.6631C26.4043 34.6631 26.9268 34.1514 26.9375 33.511C26.9496 32.7939 27.5389 32.2186 28.2628 32.2311C28.6242 32.2368 28.9575 32.3867 29.2014 32.6536C29.638 33.1316 30.3794 33.165 30.857 32.7285C31.3349 32.2921 31.3685 31.5507 30.9319 31.0728Z" fill="#262626"/>
</g>
</g>
<g id="Group_3">
<g id="Group_4">
<path id="Vector_2" d="M37.1666 34.8921C36.8074 34.0477 36.1082 33.3813 35.2477 33.0636C33.5174 32.4254 31.5885 33.3124 30.9474 35.0407C30.7222 35.6475 31.0318 36.3219 31.6385 36.5471C31.7729 36.5969 31.9105 36.6205 32.0458 36.6205C32.5219 36.6205 32.9694 36.3283 33.1447 35.8558C33.3372 35.3368 33.9174 35.0711 34.4361 35.2625C34.6969 35.3588 34.9007 35.553 35.0096 35.8093C35.2629 36.4047 35.9513 36.6825 36.5466 36.4291C37.1424 36.1758 37.4197 35.4877 37.1666 34.8921Z" fill="#262626"/>
</g>
</g>
<g id="Group_5">
<g id="Group_6">
<path id="Vector_3" d="M44.7195 24.5132C44.2614 24.0558 43.5193 24.0568 43.0623 24.5149L41.9576 25.6217C41.5004 26.0799 41.5012 26.8219 41.9593 27.2789C42.1879 27.5072 42.4875 27.6213 42.787 27.6213C43.0873 27.6213 43.3876 27.5066 43.6165 27.2772L44.7212 26.1703C45.1784 25.7122 45.1776 24.9702 44.7195 24.5132Z" fill="#262626"/>
</g>
</g>
<g id="Group_7">
<g id="Group_8">
<path id="Vector_4" d="M37.4287 39.6418H35.8669C35.2195 39.6418 34.695 40.1665 34.695 40.8137C34.695 41.4609 35.2195 41.9856 35.8669 41.9856H37.4287C38.0761 41.9856 38.6006 41.4609 38.6006 40.8137C38.6006 40.1665 38.0761 39.6418 37.4287 39.6418Z" fill="#262626"/>
</g>
</g>
<g id="Group_9">
<g id="Group_10">
<path id="Vector_5" d="M49.4043 39.6418H47.8423C47.1949 39.6418 46.6704 40.1665 46.6704 40.8137C46.6704 41.4609 47.1951 41.9856 47.8423 41.9856H49.4043C50.0515 41.9856 50.5762 41.4609 50.5762 40.8137C50.5762 40.1665 50.0515 39.6418 49.4043 39.6418Z" fill="#262626"/>
</g>
</g>
<g id="Group_11">
<g id="Group_12">
<path id="Vector_6" d="M79.9623 60.7719L79.6572 59.1247C79.4627 58.0722 78.5436 57.3083 77.4719 57.3083C77.3373 57.3083 77.2017 57.3207 77.0683 57.3452L70.8558 58.4865L73.6692 56.6057C74.4066 56.1129 74.7792 55.2313 74.6185 54.3568C74.5738 54.1173 74.49 53.8874 74.3688 53.6723L73.5174 52.1646C73.2257 51.6466 72.7281 51.2618 72.1539 51.1093C71.8727 51.0343 71.5786 51.0176 71.2918 51.0549C71.605 49.3259 71.7666 47.5599 71.7666 45.7623C71.7666 44.9646 71.2869 44.2782 70.6018 43.9734C71.4971 41.844 71.5582 39.4062 70.6732 37.1737C70.6014 36.9922 70.4949 36.8301 70.3569 36.692C70.22 36.5551 70.0599 36.4494 69.8782 36.3764C68.8177 35.954 67.7032 35.74 66.5655 35.74C66.4201 35.74 66.2752 35.7437 66.1308 35.7506C65.9685 32.4798 63.2615 29.8688 59.9568 29.8688C59.5216 29.8688 59.0973 29.915 58.6874 30.0013C58.9721 28.2981 58.8045 26.5164 58.1412 24.8436C58.0699 24.6597 57.9629 24.4947 57.8174 24.3469C57.6774 24.2069 57.5132 24.0989 57.331 24.0266C56.1887 23.5716 54.9881 23.341 53.7624 23.341C51.9162 23.341 50.1501 23.86 48.6254 24.825C48.0684 23.2114 47.1498 21.6966 45.8664 20.4102C45.4904 20.0336 44.9904 19.8261 44.4584 19.8261C43.9264 19.8261 43.4264 20.0336 43.05 20.4105L37.3761 26.0974C36.3261 25.1608 34.9444 24.601 33.4447 24.601C33.1044 24.601 32.7608 24.6308 32.4235 24.6896C31.2011 24.9024 30.0763 25.5007 29.2139 26.3769C28.1082 25.8433 26.8415 25.6613 25.6241 25.8732C25.3563 25.9197 25.0965 25.9853 24.8443 26.0653V21.6832C24.8443 18.6654 22.4188 16.2058 19.4185 16.154V13.6687C20.337 13.5098 21.0382 12.7093 21.0382 11.7462V6.1151C21.0382 5.03823 20.1621 4.16199 19.0851 4.16199H9.55527C8.47825 4.16199 7.60216 5.03823 7.60216 6.1151V11.7462C7.60216 12.7093 8.3034 13.5098 9.22184 13.6687V16.1537C6.22154 16.2054 3.79624 18.6649 3.79624 21.6829V55.8852C1.45656 57.9982 0 60.9464 0 64.2067C0 70.6202 5.62888 75.838 12.5479 75.838L59.452 75.8242C61.0529 75.8236 62.5585 75.12 63.5826 73.8941C64.5801 72.7006 65.004 71.1505 64.7597 69.6217L74.128 71.3053C74.2577 71.3286 74.3905 71.3405 74.5222 71.3405C74.9894 71.3405 75.437 71.197 75.8161 70.9261C76.3035 70.578 76.6333 70.0391 76.7213 69.448L76.975 67.7453C77.0116 67.5014 77.0075 67.2558 76.963 67.015C76.8017 66.1444 76.1388 65.4536 75.2739 65.2555L71.9719 64.498L78.1783 63.3578C78.7636 63.2503 79.2714 62.9218 79.6083 62.4325C79.9445 61.9446 80.0702 61.3549 79.9623 60.7719ZM66.5655 38.0834C67.271 38.0834 67.9646 38.1951 68.6315 38.4153C69.2274 40.23 69.0043 42.1873 68.0711 43.8042H64.9143L65.9216 42.7945C66.3788 42.3364 66.3779 41.5943 65.9196 41.1371C65.4613 40.68 64.7193 40.6807 64.2624 41.139L63.7294 41.6732C63.4796 40.8506 63.0433 40.114 62.4699 39.5098C63.633 38.5862 65.0608 38.0834 66.5655 38.0834ZM59.9568 32.2122C62.0732 32.2122 63.7949 33.9391 63.7949 36.0617C63.7949 36.1011 63.793 36.14 63.7919 36.179C62.5566 36.5808 61.418 37.2519 60.447 38.1633C60.2924 38.1047 60.1357 38.0503 59.9748 38.0058C59.632 36.1539 58.384 34.6695 56.7354 33.9762C57.4196 32.9162 58.6068 32.2122 59.9568 32.2122ZM53.7623 25.6844C54.5582 25.6844 55.3404 25.8132 56.0942 26.0678C56.6999 27.8691 56.5762 29.8039 55.8043 31.4798C55.1698 32.0578 54.6549 32.7656 54.3031 33.5612C54.0938 33.5734 53.8846 33.5966 53.6779 33.6325C52.7596 33.7923 51.9034 34.1908 51.1868 34.7686C50.9425 34.3217 50.6432 33.9094 50.3004 33.5381L52.9878 30.8447C53.4449 30.3866 53.444 29.6445 52.9857 29.1875C52.5276 28.7303 51.7856 28.7311 51.3284 29.1894L48.3912 32.1333C47.8323 31.8691 47.2283 31.6853 46.5934 31.5994C46.8676 30.2009 47.5462 28.8833 48.5959 27.8311C49.977 26.4467 51.8118 25.6844 53.7623 25.6844ZM44.7826 43.8042H43.7669C43.5958 43.3689 43.1728 43.0603 42.6767 43.0603C42.1806 43.0603 41.7576 43.369 41.5866 43.8042H40.3916C40.6691 43.3523 40.613 42.7536 40.2212 42.3626C39.7631 41.9054 39.0211 41.9062 38.5639 42.3643L37.4594 43.4712C37.3602 43.5706 37.2839 43.6839 37.2278 43.8042H34.8427C33.9494 42.4334 33.4042 40.8154 33.3397 39.0748H51.9312C51.8667 40.8154 51.3215 42.4334 50.4282 43.8042H47.9462C47.8903 43.6839 47.8137 43.5704 47.7147 43.4711L46.6103 42.3642C46.1529 41.9062 45.4112 41.905 44.9531 42.3623C44.5611 42.7532 44.505 43.3521 44.7826 43.8042ZM42.0572 36.7311C42.4989 35.0941 43.9922 33.8861 45.7619 33.8861C47.5317 33.8861 49.025 35.0942 49.4667 36.7311H42.0572ZM44.4536 22.3216C45.5683 23.5263 46.3053 24.9566 46.6667 26.46C46.0684 27.1102 45.5714 27.8286 45.1794 28.5931C45.0014 28.4841 44.7928 28.4202 44.5689 28.4202H43.0073C42.3601 28.4202 41.8355 28.9449 41.8355 29.592C41.8355 30.2392 42.3601 30.7639 43.0073 30.7639H44.3772C44.3001 31.0875 44.2403 31.415 44.1969 31.745C43.7315 31.8672 43.2872 32.0413 42.8712 32.2628C42.0901 30.9149 40.7967 29.9103 39.2642 29.5074C39.2638 29.5041 39.2631 29.5008 39.2625 29.4975C39.1706 28.9672 39.0103 28.4641 38.7917 27.9964L44.4536 22.3216ZM23.2696 32.8959C23.2008 32.7037 23.1488 32.5066 23.1146 32.3088C22.7785 30.3711 24.0847 28.5199 26.0258 28.1819C26.2305 28.1463 26.4385 28.1281 26.6438 28.1281C27.4158 28.1281 28.1536 28.3744 28.7772 28.8402C29.0352 29.033 29.3614 29.111 29.6789 29.056C29.9964 29.0008 30.2772 28.8175 30.4553 28.5489C31.0055 27.7191 31.8472 27.1685 32.8253 26.9981C33.0305 26.9624 33.2389 26.9444 33.4447 26.9444C35.181 26.9444 36.6566 28.1866 36.9531 29.8983C36.9872 30.0944 37.0047 30.2988 37.005 30.5058C37.0061 31.1124 37.47 31.618 38.0744 31.6711C39.3845 31.7863 40.4998 32.6108 41.0169 33.7723C40.3247 34.6031 39.8448 35.6175 39.6627 36.7311H32.9796C32.1486 36.7311 31.4357 37.244 31.1383 37.97C29.668 36.9686 27.9352 36.429 26.1193 36.429C24.9816 36.429 23.8671 36.6433 22.8058 37.0658C22.6258 37.1376 22.4649 37.2437 22.3277 37.3809C22.1887 37.52 22.0819 37.6829 22.0119 37.8617C21.7423 38.5419 21.5624 39.2411 21.4652 39.9447C21.0452 39.4665 20.7493 38.872 20.6337 38.2048C20.358 36.6148 21.1904 35.0317 22.6571 34.3548C23.2083 34.1005 23.4741 33.4673 23.2696 32.8959ZM26.763 43.4837L27.0827 43.8042H24.2682C23.6363 42.3382 23.5404 40.6697 24.0533 39.1047C24.7212 38.8842 25.4144 38.7726 26.1193 38.7726C27.885 38.7726 29.5461 39.4628 30.7963 40.7157C30.9625 40.8825 31.1174 41.0572 31.2628 41.2376C31.4614 42.1367 31.7666 42.9956 32.1597 43.804H30.3936L28.4222 41.8281C27.9649 41.3701 27.2229 41.3689 26.7651 41.8262C26.3068 42.2836 26.3058 43.0256 26.763 43.4837ZM21.7724 43.8042H17.5948C17.781 42.669 18.4638 41.7014 19.4116 41.1307C19.9727 41.8825 20.7051 42.4903 21.5488 42.902C21.6085 43.2061 21.6818 43.5075 21.7724 43.8042ZM9.9459 6.50573H18.6945V11.3556H9.9459V6.50573ZM17.0748 13.6993V16.1513H11.5657V13.6993H17.0748ZM6.14013 26.4353H13.7499C14.3973 26.4353 14.9218 25.9107 14.9218 25.2635C14.9218 24.6163 14.3973 24.0916 13.7499 24.0916H6.14013V21.6829C6.14013 19.925 7.56575 18.4951 9.31809 18.4951H19.3224C21.0749 18.4951 22.5005 19.925 22.5005 21.6829V24.0916H20.3124C19.6651 24.0916 19.1406 24.6163 19.1406 25.2635C19.1406 25.9107 19.6651 26.4353 20.3124 26.4353H22.5005V27.4755C21.1579 28.7919 20.4605 30.7223 20.8049 32.7081C20.8055 32.712 20.8063 32.7161 20.8069 32.7202C18.927 34.01 17.9252 36.3031 18.3241 38.6051C18.3474 38.7395 18.3766 38.8717 18.4085 39.0025C17.8231 39.3253 17.2973 39.7422 16.8467 40.23H6.14013V26.4353ZM6.13998 42.5736H15.4859C15.3615 42.9685 15.2737 43.3796 15.2309 43.8042H15.0334C13.9548 43.8042 13.0771 44.6824 13.0771 45.762C13.0771 47.6227 13.2501 49.4495 13.5853 51.2366C13.2485 51.2096 12.9032 51.1951 12.552 51.1951C11.1348 51.1951 9.78449 51.4199 8.75028 51.8284C7.16825 52.453 6.73091 53.3401 6.63544 53.9538C6.46779 54.0373 6.3031 54.1254 6.13998 54.2155V42.5736ZM20.9791 56.9696C21.4012 57.3072 21.6591 57.5943 21.8087 57.8013C21.7946 57.8015 21.7799 57.8016 21.7651 57.8016C21.1018 57.8016 19.9101 57.5343 18.5549 56.7841C18.0504 56.5046 17.5856 56.1888 17.2106 55.8712C16.7734 55.5007 16.1323 55.501 15.6954 55.8713C15.3204 56.1893 14.8557 56.5049 14.3517 56.7838C12.9962 57.5343 11.8045 57.8016 11.1414 57.8016C11.1262 57.8016 11.1117 57.8015 11.0975 57.8013C11.2468 57.5943 11.5048 57.3071 11.927 56.9693C12.2959 56.674 12.4514 56.1858 12.3212 55.7316C12.1909 55.2773 11.8006 54.9455 11.331 54.8905C10.1875 54.7565 9.46434 54.4654 9.12575 54.2535C9.54996 53.9893 10.6225 53.5388 12.5525 53.5388C14.1509 53.5388 15.3192 53.8749 15.8795 54.1896C16.2359 54.3896 16.6704 54.3896 17.0268 54.1898C17.5874 53.8751 18.7559 53.539 20.3543 53.539C22.2844 53.539 23.3568 53.9896 23.7808 54.2537C23.4424 54.4657 22.7191 54.7566 21.5752 54.8907C21.1057 54.9458 20.7152 55.2774 20.5851 55.7319C20.4545 56.1863 20.6099 56.6744 20.9791 56.9696ZM18.6349 71.233L18.6752 71.4502C18.8146 72.2028 19.1085 72.8936 19.5191 73.4942H12.5479C6.92138 73.4942 2.34374 69.328 2.34374 64.2067C2.34374 60.7069 4.48248 57.6544 7.63185 56.0716C7.99356 56.3416 8.4445 56.5744 8.9795 56.7622C8.76731 57.1246 8.6195 57.5143 8.58465 57.9207C8.5384 58.461 8.70372 58.9741 9.05059 59.3657C9.50887 59.8832 10.2123 60.1455 11.1414 60.1455C12.3795 60.1455 14.004 59.6554 15.4868 58.8344C15.8282 58.6455 16.151 58.446 16.4532 58.2375C16.7552 58.4458 17.0781 58.6454 17.4196 58.8346C18.9024 59.6554 20.527 60.1454 21.7651 60.1455H21.7652C22.694 60.1455 23.3974 59.8832 23.8555 59.3658C24.2026 58.9743 24.368 58.4611 24.3216 57.9207C24.2868 57.5143 24.139 57.1246 23.9268 56.7622C24.4618 56.5743 24.9129 56.3415 25.2746 56.0716C27.7722 57.3269 29.6333 59.5068 30.2969 62.101L22.0087 65.2496C19.5826 66.1714 18.1637 68.6877 18.6349 71.233ZM61.7838 72.3914C61.206 73.0833 60.3555 73.4801 59.4509 73.4805L58.2209 73.4809L57.4524 69.3317C57.3345 68.6953 56.7234 68.2745 56.0867 68.3928C55.4504 68.5106 55.0299 69.122 55.1478 69.7584L55.8374 73.4817L51.8053 73.4833L51.2857 70.6775C51.1678 70.0411 50.5565 69.6208 49.92 69.7386C49.2837 69.8564 48.8632 70.4678 48.9811 71.1042L49.4217 73.4842L40.0428 73.4878L39.3369 69.6772C39.2188 69.0408 38.6078 68.6205 37.9711 68.7384C37.3347 68.8563 36.9144 69.4678 37.0322 70.1042L37.6592 73.4887L23.9649 73.4941C23.9646 73.4941 23.9643 73.4941 23.964 73.4941C22.4996 73.4941 21.2446 72.455 20.9793 71.0228L20.939 70.8056C20.6741 69.375 21.4738 67.9599 22.8405 67.4405L27.4463 65.6908L27.7894 67.5427C27.894 68.1069 28.3865 68.5013 28.9402 68.5013C29.0111 68.5013 29.083 68.4947 29.1552 68.4814C29.7914 68.3634 30.2118 67.752 30.0938 67.1156L29.673 64.8449L36.5097 62.2477C37.1147 62.0178 37.4189 61.341 37.1891 60.736C36.9592 60.1308 36.2816 59.8268 35.6775 60.0566L32.4961 61.2652C31.6036 58.1054 29.3108 55.4658 26.2704 53.9537C26.1749 53.3399 25.7376 52.4529 24.1557 51.8282C23.1215 51.4198 21.7712 51.1949 20.354 51.1949C19.3787 51.1949 18.4473 51.3026 17.6251 51.4987V50.7909C17.6251 50.1437 17.1006 49.619 16.4532 49.619C16.1796 49.619 15.9287 49.7134 15.7292 49.8706C15.5443 48.6482 15.4409 47.4067 15.4237 46.1476H53.5935C54.2409 46.1476 54.7654 45.6229 54.7654 44.9757C54.7654 44.3285 54.2409 43.8039 53.5935 43.8039H53.114C53.8603 42.267 54.2818 40.5439 54.2818 38.7228C54.2818 37.6889 53.4907 36.8372 52.4826 36.7405C52.9215 36.3265 53.4693 36.0475 54.0799 35.9411C54.2589 35.91 54.4404 35.8942 54.6198 35.8942C56.1327 35.8942 57.4184 36.9765 57.6766 38.4675C57.7065 38.6401 57.7218 38.8183 57.722 38.9972C57.7227 39.604 58.1868 40.11 58.7913 40.1631C60.1918 40.2861 61.3376 41.3393 61.5777 42.7243C61.6415 43.0926 61.6335 43.4561 61.5696 43.8039H60.3123C59.6649 43.8039 59.1404 44.3285 59.1404 44.9757C59.1404 45.6229 59.6649 46.1476 60.3123 46.1476H69.4203C69.3913 48.2973 69.1144 50.3971 68.598 52.4345L62.2471 56.1835C61.8587 54.8316 60.9559 53.6849 59.712 52.9887C58.3168 52.2079 56.6588 52.0859 55.1635 52.6538L42.0837 57.6229C41.4786 57.8527 41.1745 58.5296 41.4044 59.1346C41.6342 59.7397 42.3117 60.0435 42.9159 59.814L44.639 59.1594L45.174 62.048C45.2786 62.6122 45.7711 63.0068 46.325 63.0068C46.3958 63.0068 46.4676 63.0002 46.5398 62.9869C47.1761 62.8691 47.5965 62.2577 47.4787 61.6213L46.8661 58.3135L55.9956 54.8452C56.8415 54.524 57.7787 54.5929 58.5673 55.0343C59.3545 55.4748 59.8998 56.2341 60.0635 57.1172L62.4343 69.9164C62.5977 70.7991 62.3607 71.7011 61.7838 72.3914ZM65.9651 63.2186C65.4183 63.3191 65.0176 63.7897 65.0052 64.3455C64.993 64.9013 65.373 65.3891 65.9147 65.5133L74.6397 67.5145L74.4217 68.9769L64.3071 67.1592L62.726 58.6227L71.536 53.4221L72.2699 54.7216L64.839 59.6889C64.3769 59.9979 64.1954 60.5888 64.4044 61.1038C64.6133 61.6188 65.1555 61.9163 65.7021 61.8158L77.3749 59.6716L77.6348 61.0747L65.9651 63.2186Z" fill="#262626"/>
</g>
</g>
</g>
</svg>
