<svg width="80" height="80" viewBox="0 0 80 80" fill="none" xmlns="http://www.w3.org/2000/svg">
<g id="merchandise 1" clip-path="url(#clip0_5_397)">
<g id="Group">
<path id="Vector" d="M29.8535 30.3153C30.3325 31.2189 31.2657 31.7804 32.2885 31.7804H43.434C44.4568 31.7804 45.39 31.2189 45.8691 30.3153C46.3481 29.4118 46.2894 28.3246 45.7158 27.478L40.143 19.2553C39.6295 18.4976 38.7767 18.0454 37.8615 18.0453H37.8613C36.9462 18.0453 36.0933 18.4976 35.5797 19.2552L30.0069 27.478C29.4331 28.3246 29.3744 29.4118 29.8535 30.3153ZM31.9471 28.7931L37.5199 20.5702H37.5198C37.6267 20.4125 37.7796 20.3891 37.8613 20.3891C37.9431 20.3891 38.0959 20.4125 38.2026 20.5702L43.7756 28.7931C43.8965 28.9717 43.8418 29.1354 43.7984 29.2173C43.7549 29.2992 43.6499 29.4365 43.434 29.4365H32.2885C32.0726 29.4365 31.9676 29.2992 31.9242 29.2173C31.8809 29.1354 31.826 28.9715 31.9471 28.7931Z" fill="#262626"/>
<path id="Vector_2" d="M12.3094 65.3803C12.7421 66.1961 13.5844 66.7029 14.5077 66.7029H23.7705C24.694 66.7029 25.5363 66.1961 25.9688 65.3803C26.4017 64.5644 26.3485 63.5828 25.8304 62.8182L21.1989 55.9846C20.7353 55.3005 19.9651 54.8922 19.1386 54.8924C18.3124 54.8924 17.5424 55.3007 17.0787 55.9848L17.0789 55.9846L12.4472 62.8184C11.9295 63.5829 11.8766 64.5645 12.3094 65.3803ZM14.3877 64.1331L19.0193 57.2995C19.0194 57.2995 19.0194 57.2993 19.0194 57.2993C19.0299 57.2836 19.0622 57.2361 19.1391 57.2361C19.2158 57.2359 19.2483 57.2839 19.259 57.2995L23.8903 64.133C23.905 64.1547 23.9392 64.2051 23.8985 64.282C23.8577 64.3589 23.7969 64.3589 23.7708 64.3589H14.508C14.482 64.3589 14.421 64.3589 14.3802 64.282C14.3391 64.2051 14.3746 64.1526 14.3877 64.1331Z" fill="#262626"/>
<path id="Vector_3" d="M55.6573 55.6359C56.047 56.3706 56.8058 56.8272 57.6375 56.8272H65.1627C65.9945 56.8272 66.7534 56.3706 67.1431 55.6356C67.5326 54.9007 67.485 54.0165 67.0182 53.328L63.2556 47.7763C62.838 47.1602 62.1444 46.7922 61.4 46.7924C60.6556 46.7924 59.9621 47.1602 59.5446 47.7764L59.5448 47.7763L55.782 53.328C55.3153 54.0166 55.2674 54.9009 55.6573 55.6359ZM61.4 49.2163L64.9696 54.4833H57.8305L61.4 49.2163Z" fill="#262626"/>
<path id="Vector_4" d="M41.8507 13.908C42.498 13.908 43.0226 13.3835 43.0226 12.7361C43.0226 12.0888 42.498 11.5642 41.8507 11.5642H32.8822C32.2348 11.5642 31.7103 12.0888 31.7103 12.7361C31.7103 13.3835 32.2348 13.908 32.8822 13.908H41.8507Z" fill="#262626"/>
<path id="Vector_5" d="M76.1957 46.8705C76.843 46.8705 77.3676 46.3459 77.3676 45.6986V41.9527C77.3676 40.2292 75.9652 38.827 74.2417 38.827H54.1959V22.3551L57.0525 27.2429C57.5208 28.0437 58.388 28.5412 59.3157 28.5412H69.4769C70.3863 28.5412 71.2173 28.0809 71.6995 27.3098C72.1817 26.5385 72.2318 25.59 71.8337 24.7724L65.1274 10.9992C63.5992 7.8605 60.9723 5.41887 57.7306 4.12384L48.003 0.237791C47.0464 -0.144406 45.9469 -0.0620605 45.0614 0.45811C39.8833 3.49913 34.8494 3.49882 29.6716 0.45811C28.7861 -0.0620605 27.6862 -0.144406 26.7301 0.237791L17.0022 4.12399C14.184 5.2498 11.7689 7.3022 10.2018 9.90337C10.1864 9.92868 10.1722 9.95462 10.1589 9.98118L9.13525 12.0148C8.84431 12.593 9.07697 13.2975 9.65511 13.5885C10.2336 13.8799 10.938 13.6468 11.2287 13.0686L12.2319 11.0756C13.5372 8.9274 15.5386 7.23251 17.8716 6.30046L27.5997 2.41426C27.8881 2.2991 28.2189 2.32316 28.4847 2.47895C34.378 5.94013 40.3547 5.94013 46.2483 2.47895C46.5139 2.32316 46.8447 2.2991 47.1335 2.41426L56.8614 6.30046C59.5605 7.37861 61.7478 9.41179 63.0203 12.0253L69.7266 25.7985C69.7822 25.9127 69.7496 26.0077 69.7124 26.0672C69.6752 26.1266 69.6042 26.1976 69.4771 26.1976H59.3158C59.2174 26.1976 59.1255 26.1447 59.0761 26.0602L54.0359 17.4364C53.7687 16.9795 53.2283 16.7581 52.7177 16.8965C52.2067 17.035 51.852 17.4986 51.852 18.0277V38.8271H48.5584C46.8349 38.8271 45.4325 40.2293 45.4325 41.9528V56.5656H40.7681V42.7671C40.7681 42.1197 40.2436 41.5952 39.5962 41.5952H32.9245V39.7256C32.9245 35.313 29.3344 31.7229 24.9218 31.7229C24.2166 31.7229 23.5325 31.8146 22.8808 31.9866V18.0277C22.8808 17.4984 22.5259 17.0348 22.0151 16.8965C21.5039 16.7581 20.964 16.9795 20.697 17.4364L15.6567 26.0601C15.6073 26.1447 15.5154 26.1974 15.4171 26.1974H5.25593C5.12889 26.1974 5.05764 26.1265 5.02045 26.0669C4.98342 26.0076 4.95076 25.9127 5.00639 25.7983L9.23025 17.1233C9.51354 16.5414 9.27166 15.8399 8.68962 15.5566C8.10819 15.2735 7.4063 15.5154 7.12301 16.0973L2.89915 24.7722C2.50101 25.5897 2.55101 26.5385 3.03321 27.3095C3.51541 28.0809 4.34622 28.5412 5.25593 28.5412H15.4171C16.345 28.5412 17.2122 28.0436 17.6803 27.2426L20.5368 22.3551V31.9118C19.9785 31.788 19.3985 31.7227 18.8035 31.7227C14.3907 31.7227 10.8006 35.3128 10.8006 39.7254V41.595H4.12902C3.48166 41.595 2.95712 42.1196 2.95712 42.7669V74.9187C2.95712 77.7207 5.23655 80.0001 8.0385 80.0001H18.4936C19.141 80.0001 19.6655 79.4756 19.6655 78.8282C19.6655 78.1809 19.141 77.6563 18.4936 77.6563H8.0385C6.52909 77.6563 5.30093 76.4283 5.30093 74.9187V43.9388H31.1021V77.6562H23.025C22.3776 77.6562 21.8531 78.1807 21.8531 78.8281C21.8531 79.4754 22.3776 80 23.025 80H35.6869C38.4889 80 40.7683 77.7204 40.7683 74.9184V58.9092H45.4326V61.6665C45.4326 63.39 46.835 64.7924 48.5585 64.7924H74.2419C75.9654 64.7924 77.3677 63.39 77.3677 61.6665V50.2299C77.3677 49.5826 76.8432 49.058 76.1958 49.058C75.5485 49.058 75.0239 49.5826 75.0239 50.2299V61.6665C75.0239 62.0978 74.6731 62.4485 74.2419 62.4485H48.5584C48.1271 62.4485 47.7763 62.0978 47.7763 61.6665V41.9527C47.7763 41.5216 48.1271 41.1708 48.5584 41.1708H74.2417C74.673 41.1708 75.0238 41.5216 75.0238 41.9527V45.6986C75.0238 46.3458 75.5483 46.8705 76.1957 46.8705ZM13.1446 39.7254C13.1446 36.605 15.6832 34.0665 18.8036 34.0665C18.9541 34.0665 19.1033 34.0725 19.2508 34.084C17.8103 35.5319 16.9189 37.5265 16.9189 39.7254V41.595H13.1446V39.7254ZM19.2629 39.7254C19.2629 38.3715 19.741 37.1271 20.537 36.1521V41.5949H19.2629V39.7254ZM22.8808 41.595V35.805C23.8599 36.8229 24.4625 38.2051 24.4625 39.7254V41.595H22.8808ZM26.8064 41.595V39.7254C26.8064 37.5266 25.9149 35.532 24.4744 34.0842C24.6221 34.0726 24.7713 34.0665 24.9218 34.0665C28.0422 34.0665 30.5807 36.605 30.5807 39.7254V41.595H26.8064ZM38.4243 74.9186C38.4243 76.4281 37.1963 77.6563 35.6868 77.6563H33.4458V43.9388H38.4242L38.4243 74.9186Z" fill="#262626"/>
</g>
</g>
<defs>
<clipPath id="clip0_5_397">
<rect width="80" height="80" fill="white"/>
</clipPath>
</defs>
</svg>
