<svg width="80" height="80" viewBox="0 0 80 80" fill="none" xmlns="http://www.w3.org/2000/svg">
<path d="M40 61.8182C28 61.8182 18.1818 52 18.1818 40C18.1818 28 28 18.1818 40 18.1818C52 18.1818 61.8182 28 61.8182 40C61.8182 52 52 61.8182 40 61.8182ZM40 20.6061C29.3333 20.6061 20.6061 29.3333 20.6061 40C20.6061 50.6667 29.3333 59.3939 40 59.3939C50.6667 59.3939 59.3939 50.6667 59.3939 40C59.3939 29.3333 50.6667 20.6061 40 20.6061Z" fill="#262626"/>
<path d="M40 61.8182C33.4546 61.8182 28.3636 52.2424 28.3636 40C28.3636 27.7576 33.4546 18.1818 40 18.1818C46.5455 18.1818 51.6364 27.7576 51.6364 40C51.6364 52.2424 46.5455 61.8182 40 61.8182ZM40 20.6061C35.0303 20.6061 30.7879 29.4546 30.7879 40C30.7879 50.5455 35.0303 59.3939 40 59.3939C44.9697 59.3939 49.2121 50.5455 49.2121 40C49.2121 29.4546 44.9697 20.6061 40 20.6061Z" fill="#262626"/>
<path d="M40 51.6364C27.7576 51.6364 18.1818 46.5455 18.1818 40C18.1818 33.4546 27.7576 28.3636 40 28.3636C52.2424 28.3636 61.8182 33.4546 61.8182 40C61.8182 46.5455 52.2424 51.6364 40 51.6364ZM40 30.7879C29.4546 30.7879 20.6061 35.0303 20.6061 40C20.6061 44.9697 29.4546 49.2121 40 49.2121C50.5455 49.2121 59.3939 44.9697 59.3939 40C59.3939 35.0303 50.5455 30.7879 40 30.7879Z" fill="#262626"/>
<path d="M40 61.8182C39.2728 61.8182 38.7879 61.3333 38.7879 60.6061V19.3939C38.7879 18.6667 39.2728 18.1818 40 18.1818C40.7273 18.1818 41.2121 18.6667 41.2121 19.3939V60.6061C41.2121 61.3333 40.7273 61.8182 40 61.8182Z" fill="#262626"/>
<path d="M60.6061 41.2121H19.3939C18.6667 41.2121 18.1818 40.7273 18.1818 40C18.1818 39.2728 18.6667 38.7879 19.3939 38.7879H60.6061C61.3333 38.7879 61.8182 39.2728 61.8182 40C61.8182 40.7273 61.3333 41.2121 60.6061 41.2121Z" fill="#262626"/>
<path d="M13.9394 26.4243C12.4849 26.4243 10.9091 26.1818 9.45458 25.5758C6.30306 24.3637 3.75761 22.0606 2.42427 19.0303C0.969729 16 0.848517 12.4849 2.06064 9.33336C3.27276 6.18184 5.57579 3.7576 8.60609 2.42427C11.6364 0.969723 15.0303 0.848511 18.1819 1.93942C21.3334 3.15154 23.8788 5.45457 25.2122 8.48488C26.6667 11.5152 26.7879 14.9091 25.5758 18.1818C24.3637 21.3334 22.0606 23.8788 19.0303 25.3334C17.4546 26.0606 15.6364 26.4243 13.9394 26.4243ZM13.9394 3.63639C12.4849 3.63639 11.0303 4.00003 9.697 4.60609C7.15155 5.697 5.21215 7.63639 4.24246 10.1818C3.27276 12.7273 3.39397 15.5152 4.60609 18.0606C5.697 20.4849 7.75761 22.4243 10.3031 23.394C12.8485 24.3637 15.6364 24.2425 18.0606 23.1515C20.4849 22.0606 22.4243 20 23.394 17.4546C24.3637 14.9091 24.2425 12.1212 23.0303 9.697C21.8182 7.15154 19.8788 5.33336 17.3334 4.36366C16.2425 3.87881 15.0303 3.63639 13.9394 3.63639Z" fill="#262626"/>
<path d="M13.9394 19.2727C10.6667 19.2727 8.12122 15.5152 8.12122 12.3637C8.12122 9.21214 10.7879 6.54547 13.9394 6.54547C17.0909 6.54547 19.7576 9.21214 19.7576 12.3637C19.7576 15.5152 17.2121 19.2727 13.9394 19.2727ZM13.9394 8.96971C12.1212 8.96971 10.5455 10.5455 10.5455 12.3637C10.5455 14.303 12.2424 16.8485 13.9394 16.8485C15.6364 16.8485 17.3333 14.303 17.3333 12.3637C17.3333 10.5455 15.7576 8.96971 13.9394 8.96971Z" fill="#262626"/>
<path d="M20.4849 24.1212C20.2424 24.1212 20.1212 24.1212 19.8788 24L17.8182 22.9091L16.7273 22.303C15.5152 21.697 14.7879 20.3636 14.7879 19.1515V17.4546C14.7879 16.7273 15.2728 16.2424 16 16.2424C16.7273 16.2424 17.2121 16.7273 17.2121 17.4546V19.1515C17.2121 19.6364 17.4546 20 17.9394 20.2424L18.9091 20.8485L20.8485 21.9394C21.4546 22.303 21.697 23.0303 21.3334 23.6364C21.3334 23.8788 20.9697 24.1212 20.4849 24.1212Z" fill="#262626"/>
<path d="M7.15153 24C6.66668 24 6.30305 23.7576 6.06062 23.3939C5.69699 22.7879 5.93941 22.0606 6.54547 21.697L9.69699 20C10.303 19.6364 10.4243 19.1515 10.4243 18.9091V17.2121C10.4243 16.4848 10.9091 16 11.6364 16C12.3637 16 12.8485 16.4848 12.8485 17.2121V18.9091C12.8485 20.2424 12.1212 21.4545 10.9091 22.1818L7.75759 23.8788C7.51517 24 7.39396 24 7.15153 24Z" fill="#262626"/>
<path d="M13.9394 26.4243C12.4849 26.4243 10.9091 26.1818 9.45458 25.5758C6.30306 24.3637 3.75761 22.0606 2.42427 19.0303C0.969729 16 0.848517 12.4849 2.06064 9.33336C3.27276 6.18184 5.57579 3.7576 8.60609 2.42427C11.6364 0.969723 15.0303 0.848511 18.1819 1.93942C21.3334 3.15154 23.8788 5.45457 25.2122 8.48488C26.6667 11.5152 26.7879 14.9091 25.5758 18.1818C24.3637 21.3334 22.0606 23.8788 19.0303 25.3334C17.4546 26.0606 15.6364 26.4243 13.9394 26.4243ZM13.9394 3.63639C12.4849 3.63639 11.0303 4.00003 9.697 4.60609C7.15155 5.697 5.21215 7.63639 4.24246 10.1818C3.27276 12.7273 3.39397 15.5152 4.60609 18.0606C5.697 20.4849 7.75761 22.4243 10.3031 23.394C12.8485 24.3637 15.6364 24.2425 18.0606 23.1515C20.4849 22.0606 22.4243 20 23.394 17.4546C24.3637 14.9091 24.2425 12.1212 23.0303 9.697C21.8182 7.15154 19.8788 5.33336 17.3334 4.36366C16.2425 3.87881 15.0303 3.63639 13.9394 3.63639Z" fill="#262626"/>
<path d="M13.9394 19.2727C10.6667 19.2727 8.12122 15.5152 8.12122 12.3637C8.12122 9.21214 10.7879 6.54547 13.9394 6.54547C17.0909 6.54547 19.7576 9.21214 19.7576 12.3637C19.7576 15.5152 17.2121 19.2727 13.9394 19.2727ZM13.9394 8.96971C12.1212 8.96971 10.5455 10.5455 10.5455 12.3637C10.5455 14.303 12.2424 16.8485 13.9394 16.8485C15.6364 16.8485 17.3333 14.303 17.3333 12.3637C17.3333 10.5455 15.7576 8.96971 13.9394 8.96971Z" fill="#262626"/>
<path d="M20.4849 24.1212C20.2424 24.1212 20.1212 24.1212 19.8788 24L17.8182 22.9091L16.7273 22.303C15.5152 21.697 14.7879 20.3636 14.7879 19.1515V17.4546C14.7879 16.7273 15.2728 16.2424 16 16.2424C16.7273 16.2424 17.2121 16.7273 17.2121 17.4546V19.1515C17.2121 19.6364 17.4546 20 17.9394 20.2424L18.9091 20.8485L20.8485 21.9394C21.4546 22.303 21.697 23.0303 21.3334 23.6364C21.3334 23.8788 20.9697 24.1212 20.4849 24.1212Z" fill="#262626"/>
<path d="M7.15153 24C6.66668 24 6.30305 23.7576 6.06062 23.3939C5.69699 22.7879 5.93941 22.0606 6.54547 21.697L9.69699 20C10.303 19.6364 10.4243 19.1515 10.4243 18.9091V17.2121C10.4243 16.4848 10.9091 16 11.6364 16C12.3637 16 12.8485 16.4848 12.8485 17.2121V18.9091C12.8485 20.2424 12.1212 21.4545 10.9091 22.1818L7.75759 23.8788C7.51517 24 7.39396 24 7.15153 24Z" fill="#262626"/>
<path d="M66.1818 26.5455C64.7273 26.5455 63.2727 26.303 61.8182 25.697C58.6667 24.4849 56.1212 22.1818 54.6667 19.1515C51.8788 12.7273 54.6667 5.21212 60.9697 2.42425C64.1212 0.9697 67.6364 0.9697 70.7879 2.18182C73.8182 3.39394 76.2424 5.69697 77.5758 8.60606C79.0303 11.6364 79.1515 15.0303 77.9394 18.1818C76.7273 21.3333 74.4242 23.8788 71.3939 25.3333C69.697 26.1818 68 26.5455 66.1818 26.5455ZM66.303 3.75758C64.8485 3.75758 63.3939 4.12122 61.9394 4.72728C56.8485 6.90909 54.5455 12.9697 56.8485 18.1818C59.2727 23.2727 65.3333 25.5758 70.4242 23.1515C75.5151 20.7273 77.8182 14.6667 75.3939 9.57576C74.303 7.15152 72.3636 5.33334 69.9394 4.36364C68.7273 3.87879 67.5152 3.75758 66.303 3.75758Z" fill="#262626"/>
<path d="M66.303 19.2727C63.0303 19.2727 60.4849 15.5152 60.4849 12.3637C60.4849 9.21214 63.1515 6.54547 66.303 6.54547C69.4546 6.54547 72.1212 9.21214 72.1212 12.3637C72.1212 15.5152 69.5758 19.2727 66.303 19.2727ZM66.303 8.96971C64.4849 8.96971 62.9091 10.5455 62.9091 12.3637C62.9091 14.303 64.6061 16.8485 66.303 16.8485C68 16.8485 69.697 14.303 69.697 12.3637C69.697 10.5455 68.1212 8.96971 66.303 8.96971Z" fill="#262626"/>
<path d="M72.8485 24.1212C72.6061 24.1212 72.4849 24.1212 72.2425 24L70.1819 22.9091L69.0909 22.303C67.8788 21.697 67.1516 20.3636 67.1516 19.1515V17.4546C67.1516 16.7273 67.6364 16.2424 68.3637 16.2424C69.0909 16.2424 69.5758 16.7273 69.5758 17.4546V19.1515C69.5758 19.6364 69.8182 20 70.3031 20.2424L71.2728 20.8485L73.2122 21.9394C73.8182 22.303 74.0606 23.0303 73.697 23.6364C73.697 23.8788 73.3334 24.1212 72.8485 24.1212Z" fill="#262626"/>
<path d="M59.5152 24C59.0303 24 58.6667 23.7576 58.4243 23.3939C58.0606 22.7879 58.3031 22.0606 58.9091 21.697L62.0606 20C62.6667 19.6364 62.7879 19.1515 62.7879 18.9091V17.2121C62.7879 16.4848 63.2728 16 64 16C64.7273 16 65.2121 16.4848 65.2121 17.2121V18.9091C65.2121 20.2424 64.4849 21.4545 63.2728 22.1818L60.1212 23.8788C59.8788 24 59.7576 24 59.5152 24Z" fill="#262626"/>
<path d="M13.8182 78.7879C12.2424 78.7879 10.7879 78.5455 9.21214 77.9394C6.06063 76.7273 3.63638 74.4242 2.30305 71.3939C-0.606042 65.0909 2.18184 57.5758 8.48487 54.6667C14.7879 51.8788 22.1818 54.6667 25.0909 60.9697C26.5455 64 26.6667 67.3939 25.4546 70.6667C24.2424 73.8182 21.9394 76.3636 18.9091 77.8182C17.3334 78.4242 15.6364 78.7879 13.8182 78.7879ZM13.697 56C12.3637 56 10.9091 56.2424 9.57578 56.8485C4.48487 59.2727 2.18184 65.3333 4.60608 70.4242C5.69699 72.8485 7.63638 74.7879 10.1818 75.7576C12.7273 76.7273 15.5152 76.7273 18.0606 75.5151C20.4849 74.4242 22.4243 72.3636 23.394 69.8182C24.3637 67.2727 24.2424 64.4848 23.0303 62.0606C21.2121 58.1818 17.5758 56 13.697 56Z" fill="#262626"/>
<path d="M13.9394 71.7576C10.6667 71.7576 8.12122 68 8.12122 64.8485C8.12122 61.697 10.7879 59.0303 13.9394 59.0303C15.3939 58.9091 16.8485 59.5152 17.9394 60.6061C19.1515 61.697 19.7576 63.2727 19.7576 64.8485C19.7576 68 17.2121 71.7576 13.9394 71.7576ZM14.1818 61.4546H14.0606C12.1212 61.4546 10.6667 63.0303 10.6667 64.8485C10.6667 66.7879 12.3636 69.3333 14.0606 69.3333C15.7576 69.3333 17.4545 66.7879 17.4545 64.8485C17.4545 63.8788 17.0909 63.0303 16.3636 62.303C15.6364 61.697 14.9091 61.4546 14.1818 61.4546Z" fill="#262626"/>
<path d="M20.4849 76.6061C20.2424 76.6061 20.1212 76.6061 19.8788 76.4849L17.8182 75.394L16.7273 74.7879C15.5152 74.1818 14.7879 72.8485 14.7879 71.6364V69.8182C14.7879 69.0909 15.2728 68.6061 16 68.6061C16.7273 68.6061 17.2121 69.0909 17.2121 69.8182V71.5152C17.2121 72 17.4546 72.3637 17.9394 72.6061L18.9091 73.2121L20.8485 74.3031C21.4546 74.6667 21.697 75.394 21.3334 76C21.3334 76.3637 20.9697 76.6061 20.4849 76.6061Z" fill="#262626"/>
<path d="M7.15153 76.3636C6.66668 76.3636 6.30305 76.1212 6.06062 75.7576C5.69699 75.1515 5.93941 74.4243 6.54547 74.0606L9.69699 72.3636C10.303 72 10.4243 71.5152 10.4243 71.2727V69.5758C10.4243 68.8485 10.9091 68.3636 11.6364 68.3636C12.3637 68.3636 12.8485 68.8485 12.8485 69.5758V71.2727C12.8485 72.6061 12.1212 73.8182 10.9091 74.5455L7.75759 76.2424C7.51517 76.3636 7.39396 76.3636 7.15153 76.3636Z" fill="#262626"/>
<path d="M13.8182 78.7879C12.2424 78.7879 10.7879 78.5455 9.21214 77.9394C6.06063 76.7273 3.63638 74.4242 2.30305 71.3939C-0.606042 65.0909 2.18184 57.5758 8.48487 54.6667C14.7879 51.8788 22.1818 54.6667 25.0909 60.9697C26.5455 64 26.6667 67.3939 25.4546 70.6667C24.2424 73.8182 21.9394 76.3636 18.9091 77.8182C17.3334 78.4242 15.6364 78.7879 13.8182 78.7879ZM13.697 56C12.3637 56 10.9091 56.2424 9.57578 56.8485C4.48487 59.2727 2.18184 65.3333 4.60608 70.4242C5.69699 72.8485 7.63638 74.7879 10.1818 75.7576C12.7273 76.7273 15.5152 76.7273 18.0606 75.5151C20.4849 74.4242 22.4243 72.3636 23.394 69.8182C24.3637 67.2727 24.2424 64.4848 23.0303 62.0606C21.2121 58.1818 17.5758 56 13.697 56Z" fill="#262626"/>
<path d="M13.9394 71.7576C10.6667 71.7576 8.12122 68 8.12122 64.8485C8.12122 61.697 10.7879 59.0303 13.9394 59.0303C15.3939 58.9091 16.8485 59.5152 17.9394 60.6061C19.1515 61.697 19.7576 63.2727 19.7576 64.8485C19.7576 68 17.2121 71.7576 13.9394 71.7576ZM14.1818 61.4546H14.0606C12.1212 61.4546 10.6667 63.0303 10.6667 64.8485C10.6667 66.7879 12.3636 69.3333 14.0606 69.3333C15.7576 69.3333 17.4545 66.7879 17.4545 64.8485C17.4545 63.8788 17.0909 63.0303 16.3636 62.303C15.6364 61.697 14.9091 61.4546 14.1818 61.4546Z" fill="#262626"/>
<path d="M20.4849 76.6061C20.2424 76.6061 20.1212 76.6061 19.8788 76.4849L17.8182 75.394L16.7273 74.7879C15.5152 74.1818 14.7879 72.8485 14.7879 71.6364V69.8182C14.7879 69.0909 15.2728 68.6061 16 68.6061C16.7273 68.6061 17.2121 69.0909 17.2121 69.8182V71.5152C17.2121 72 17.4546 72.3637 17.9394 72.6061L18.9091 73.2121L20.8485 74.3031C21.4546 74.6667 21.697 75.394 21.3334 76C21.3334 76.3637 20.9697 76.6061 20.4849 76.6061Z" fill="#262626"/>
<path d="M7.15153 76.3636C6.66668 76.3636 6.30305 76.1212 6.06062 75.7576C5.69699 75.1515 5.93941 74.4243 6.54547 74.0606L9.69699 72.3636C10.303 72 10.4243 71.5152 10.4243 71.2727V69.5758C10.4243 68.8485 10.9091 68.3636 11.6364 68.3636C12.3637 68.3636 12.8485 68.8485 12.8485 69.5758V71.2727C12.8485 72.6061 12.1212 73.8182 10.9091 74.5455L7.75759 76.2424C7.51517 76.3636 7.39396 76.3636 7.15153 76.3636Z" fill="#262626"/>
<path d="M66.1818 78.9091C64.7273 78.9091 63.2728 78.6666 61.8182 78.0606C58.6667 76.8485 56.1212 74.5454 54.6667 71.5151C51.7576 65.2121 54.5455 57.697 60.8485 54.7879C64 53.3333 67.5152 53.2121 70.6667 54.4242C73.8182 55.6363 76.2425 57.9394 77.5758 60.9697C80.4849 67.2727 77.697 74.7879 71.394 77.6969C69.697 78.5454 68 78.9091 66.1818 78.9091ZM66.1818 56C64.7273 56 63.2728 56.3636 61.8182 56.9697C56.7273 59.3939 54.4243 65.4545 56.8485 70.5454C58.0606 72.9697 60 74.9091 62.6667 75.8788C65.2122 76.8485 68 76.7273 70.4243 75.5151C75.5152 73.0909 77.8182 67.0303 75.394 61.9394C74.3031 59.5151 72.3637 57.5757 69.8182 56.7273C68.6061 56.2424 67.394 56 66.1818 56Z" fill="#262626"/>
<path d="M66.303 71.7576C63.0303 71.7576 60.4849 68 60.4849 64.8485C60.4849 61.697 63.1515 59.0303 66.303 59.0303C67.7576 58.9091 69.2121 59.5152 70.303 60.6061C71.5152 61.697 72.1212 63.2727 72.1212 64.8485C72.1212 68 69.5758 71.7576 66.303 71.7576ZM66.5455 61.4546H66.4243C64.4849 61.4546 63.0303 63.0303 63.0303 64.8485C63.0303 66.7879 64.7273 69.3333 66.4243 69.3333C68.1212 69.3333 69.8182 66.7879 69.8182 64.8485C69.8182 63.8788 69.4546 63.0303 68.7273 62.303C68 61.697 67.2727 61.4546 66.5455 61.4546Z" fill="#262626"/>
<path d="M72.8485 76.6061C72.6061 76.6061 72.4849 76.6061 72.2425 76.4849L70.1819 75.394L69.0909 74.7879C67.8788 74.1818 67.1516 72.8485 67.1516 71.6364V69.8182C67.1516 69.0909 67.6364 68.6061 68.3637 68.6061C69.0909 68.6061 69.5758 69.0909 69.5758 69.8182V71.5152C69.5758 72 69.8182 72.3637 70.3031 72.6061L71.2728 73.2121L73.2122 74.3031C73.8182 74.6667 74.0606 75.394 73.697 76C73.697 76.3637 73.3334 76.6061 72.8485 76.6061Z" fill="#262626"/>
<path d="M59.5152 76.3636C59.0303 76.3636 58.6667 76.1212 58.4243 75.7576C58.0606 75.1515 58.3031 74.4243 58.9091 74.0606L62.0606 72.3636C62.6667 72 62.7879 71.5152 62.7879 71.2727V69.5758C62.7879 68.8485 63.2728 68.3636 64 68.3636C64.7273 68.3636 65.2121 68.8485 65.2121 69.5758V71.2727C65.2121 72.6061 64.4849 73.8182 63.2728 74.5455L60.1212 76.2424C59.8788 76.3636 59.7576 76.3636 59.5152 76.3636Z" fill="#262626"/>
<path d="M40 73.697C34.4243 73.697 29.2121 72.3636 24.3636 69.8182C23.7576 69.4545 23.5152 68.7273 23.8788 68.1212C24.2424 67.5152 24.9697 67.2727 25.5758 67.6364C30.0606 70.0606 34.9091 71.2727 40 71.2727C41.9394 71.2727 44 71.0303 46.1818 70.6667C46.7879 70.5455 47.5152 71.0303 47.6364 71.6364C47.7576 72.2424 47.2727 72.9697 46.6667 73.0909C44.2424 73.4545 42.0606 73.697 40 73.697Z" fill="#262626"/>
<path d="M52.6061 71.1516C52.1213 71.1516 51.6364 70.7879 51.5152 70.3031C51.2728 69.697 51.6364 68.9698 52.2425 68.7273C52.8485 68.4849 53.5758 68.1213 54.3031 67.8788L55.394 70.0607C54.6667 70.4243 53.8182 70.7879 53.091 71.0304C52.8485 71.1516 52.7273 71.1516 52.6061 71.1516Z" fill="#262626"/>
<path d="M46.5455 73.091C46.0607 73.091 45.5758 72.7273 45.4546 72.2425C45.2122 71.6364 45.5758 70.9092 46.1819 70.6667C46.5455 70.5455 47.0304 70.4243 47.394 70.3031C47.7576 70.1819 48.1213 70.1819 48.4849 70.0607C49.091 69.8183 49.8182 70.1819 50.0607 70.788C50.3031 71.394 49.9394 72.1213 49.3334 72.3637C48.9697 72.4849 48.4849 72.6061 48.1213 72.7273C47.7576 72.8486 47.394 72.8486 47.0304 72.9698C46.7879 73.091 46.6667 73.091 46.5455 73.091Z" fill="#262626"/>
<path d="M68.7273 56.2425C68.4849 56.2425 68.3636 56.2425 68.1212 56.1213C67.5152 55.7576 67.2727 55.0303 67.6364 54.4243C69.9394 50.1819 71.1515 45.3334 71.2727 40.3637C71.3939 38.5455 71.2727 36.6061 70.7879 34.1819C70.6667 33.5758 71.1515 32.8485 71.7576 32.7273C72.3636 32.6061 73.0909 33.091 73.2121 33.697C73.697 36.2425 73.8182 38.4243 73.697 40.3637C73.5758 45.5758 72.2424 50.7879 69.8182 55.394C69.5758 56 69.2121 56.2425 68.7273 56.2425Z" fill="#262626"/>
<path d="M70.1818 29.0909C69.697 29.0909 69.2121 28.7273 69.0909 28.2425C68.8485 27.6364 68.4849 26.9091 68.2424 26.1818C68 25.5758 68.2424 24.8485 68.7273 24.6061C69.3334 24.3637 70.0606 24.6061 70.303 25.0909C70.6667 25.8182 71.0303 26.6667 71.394 27.394C71.6364 28 71.2727 28.7273 70.6667 28.9697C70.4243 29.0909 70.3031 29.0909 70.1818 29.0909Z" fill="#262626"/>
<path d="M72 35.394C71.394 35.394 70.9091 34.9091 70.7879 34.4243C70.6667 33.5758 70.5455 32.8485 70.303 32.2425C70.0606 31.6364 70.4243 30.9091 71.0303 30.6667C71.6364 30.4243 72.3637 30.7879 72.6061 31.394C72.8485 32.2425 72.9697 33.0909 73.0909 34.0606C73.2121 34.6667 72.7273 35.394 72.1212 35.394H72Z" fill="#262626"/>
<path d="M55.0303 12.4849C54.7879 12.4849 54.6667 12.4849 54.4243 12.3636C49.9394 9.9394 45.0909 8.72728 40 8.72728C38.0606 8.72728 36 8.96971 33.8182 9.33334C33.2122 9.45455 32.4849 8.96971 32.3637 8.36365C32.2425 7.75759 32.7273 7.03031 33.3334 6.9091C35.6364 6.54546 37.9394 6.30304 40 6.30304C45.5758 6.30304 50.7879 7.63637 55.6364 10.1818C56.2425 10.5455 56.4849 11.2727 56.1212 11.8788C55.8788 12.2424 55.5152 12.4849 55.0303 12.4849Z" fill="#262626"/>
<path d="M25.2121 12.2425C24.7273 12.2425 24.3637 12 24.1212 11.5152C23.8788 10.9091 24.1212 10.1819 24.6061 9.93943C25.3333 9.57579 26.1818 9.21215 26.9091 8.84852C27.5152 8.60609 28.2424 8.96973 28.4849 9.57579C28.7273 10.1819 28.3637 10.9091 27.7576 11.1515C27.1515 11.394 26.4243 11.7576 25.697 12C25.5758 12.2425 25.4546 12.2425 25.2121 12.2425Z" fill="#262626"/>
<path d="M31.2727 9.93943C30.7879 9.93943 30.303 9.5758 30.1818 9.09095C29.9394 8.48489 30.303 7.75761 30.9091 7.6364C31.2727 7.51519 31.7576 7.39398 32.1212 7.27277C32.4849 7.15155 32.8485 7.15155 33.2121 7.03034C33.8182 6.78792 34.5455 7.15155 34.7879 7.75761C35.0303 8.36367 34.6667 9.09095 34.0606 9.33337C33.697 9.45458 33.2121 9.5758 32.8485 9.69701C32.4849 9.81822 32.1212 9.81822 31.7576 9.93943C31.5152 9.93943 31.394 9.93943 31.2727 9.93943Z" fill="#262626"/>
<path d="M8.12122 47.7576C7.51516 47.7576 7.03031 47.394 6.9091 46.7879C6.42425 44.9697 6.30304 42.7879 6.30304 40.1212C6.30304 34.6667 7.51516 29.4546 10.0606 24.4849C10.4243 23.8788 11.1515 23.6364 11.6364 24C12.2424 24.3637 12.4849 25.0909 12.1212 25.5758C9.81819 30.0606 8.60607 35.0303 8.60607 40C8.60607 42.5455 8.72728 44.4849 9.21213 46.1818C9.33334 46.7879 8.96971 47.5152 8.36365 47.6364C8.36365 47.7576 8.24243 47.7576 8.12122 47.7576Z" fill="#262626"/>
<path d="M11.0303 56.1212C10.5454 56.1212 10.1818 55.8788 9.93937 55.3939C9.57573 54.6667 9.21209 53.8182 8.84846 53.0909C8.60603 52.4848 8.96967 51.7576 9.57573 51.5151C10.1818 51.2727 10.9091 51.6364 11.1515 52.2424C11.3939 52.8485 11.7575 53.5757 12 54.303C12.2424 54.9091 12 55.6364 11.5151 55.8788C11.3939 56.1212 11.2727 56.1212 11.0303 56.1212Z" fill="#262626"/>
<path d="M8.72728 50.0606C8.24243 50.0606 7.75758 49.697 7.63637 49.2121C7.39394 48.6061 7.15152 47.6364 7.03031 46.6667C6.78788 46.0606 7.27273 45.4545 7.87879 45.3333C8.48485 45.2121 9.21212 45.697 9.33334 46.303C9.45455 46.9091 9.57576 47.6364 9.9394 48.3636C10.1818 48.9697 9.81818 49.697 9.21212 49.9394C8.9697 50.0606 8.84849 50.0606 8.72728 50.0606Z" fill="#262626"/>
</svg>
