<svg width="80" height="80" viewBox="0 0 80 80" fill="none" xmlns="http://www.w3.org/2000/svg">
<g id="freelancer 1" clip-path="url(#clip0_5_609)">
<g id="Group">
<g id="Group_2">
<path id="Vector" d="M40.0554 28.7078C40.7027 28.7078 41.2273 28.1831 41.2273 27.5359V26.4153C41.2273 25.7681 40.7027 25.2434 40.0554 25.2434C39.408 25.2434 38.8835 25.7681 38.8835 26.4153V27.5359C38.8835 28.1831 39.4082 28.7078 40.0554 28.7078Z" fill="#262626"/>
<path id="Vector_2" d="M27.893 25.2434C27.2457 25.2434 26.7211 25.7681 26.7211 26.4153V27.5359C26.7211 28.1831 27.2457 28.7078 27.893 28.7078C28.5404 28.7078 29.0649 28.1831 29.0649 27.5359V26.4153C29.0649 25.7681 28.5402 25.2434 27.893 25.2434Z" fill="#262626"/>
<path id="Vector_3" d="M33.9735 37.3616H33.9773C35.1641 37.3606 36.2788 36.8972 37.1163 36.0569C37.5732 35.5984 37.5719 34.8564 37.1133 34.3997C36.6546 33.9428 35.9126 33.9441 35.4562 34.4026C35.0612 34.7991 34.5352 35.0175 33.9754 35.018C33.9748 35.018 33.9741 35.018 33.9735 35.018C33.4121 35.018 32.884 34.7991 32.4863 34.4012C32.0287 33.9437 31.2866 33.9436 30.8291 34.4012C30.3713 34.8589 30.3713 35.6009 30.829 36.0584C31.6696 36.8987 32.786 37.3616 33.9735 37.3616Z" fill="#262626"/>
<path id="Vector_4" d="M78.115 66.5196H75.9997L79.9095 47.4687C80.1666 46.2182 79.8655 44.9509 79.0833 43.9917C78.3769 43.1253 77.3863 42.6282 76.3653 42.6282H66.6434C65.9961 42.6282 65.4716 43.1529 65.4716 43.8001C65.4716 44.4473 65.9961 44.972 66.6434 44.972H76.3653C76.6694 44.972 77.0148 45.1639 77.2667 45.4728C77.4637 45.7143 77.7708 46.2335 77.6137 46.9973L73.607 66.5198H46.7894L47.6033 62.5546C47.6036 62.5529 47.6037 62.5512 47.6041 62.5495L50.8413 46.7728C51.0114 45.9421 51.6677 44.9723 52.9575 44.9723H61.0805C61.7278 44.9723 62.2523 44.4476 62.2523 43.8004C62.2523 43.1532 61.7278 42.6285 61.0805 42.6285H52.9575C51.2333 42.6285 49.7702 43.547 49.0053 45.0098L42.2769 42.9354V40.6984C45.0952 38.5114 47.3644 35.506 48.5016 32.4412C51.4077 32.3034 54.2487 30.6084 54.2487 27.5139V26.2559C54.2487 24.3642 52.7058 22.8251 50.8092 22.8251H49.4486C50.0941 17.1001 49.9448 11.2393 44.4461 6.56526C41.1556 3.76823 35.2552 2.42229 30.4153 3.36557C27.8186 3.87167 25.8425 5.00761 24.7767 6.59151C22.1594 7.17073 20.1166 8.53104 18.8472 10.5478C17.5734 12.5712 17.1061 15.2189 17.4959 18.2043L18.0984 22.8249H16.7445C14.848 22.8249 13.305 24.364 13.305 26.2557V27.5137C13.305 30.6064 16.1425 32.301 19.0561 32.4409C20.1925 35.5054 22.4602 38.5104 25.2769 40.6974V42.9353L16.0063 45.7937C13.3212 46.619 11.2933 48.4631 10.0958 51.1456H9.21078C7.90266 51.1456 6.83594 52.1873 6.78984 53.4842H4.13063C2.54422 53.4842 1.25359 54.7729 1.25359 56.3568V60.6179C1.25359 62.202 2.54422 63.4906 4.13063 63.4906H6.78547V64.7326C6.78547 65.3723 6.93188 65.9784 7.19281 66.5195H1.885C0.845625 66.5196 0 67.3673 0 68.4092V75.0487C0 76.0881 0.845625 76.9335 1.88484 76.9335H34.6517C35.2991 76.9335 35.8236 76.4089 35.8236 75.7617C35.8236 75.1145 35.2991 74.5898 34.6517 74.5898H2.34375V68.8635H77.6561V74.5898H40.0598C39.4125 74.5898 38.888 75.1145 38.888 75.7617C38.888 76.4089 39.4125 76.9335 40.0598 76.9335H78.115C79.1542 76.9335 79.9998 76.0879 79.9998 75.0487V68.4092C79.9998 67.3673 79.1542 66.5196 78.115 66.5196ZM51.905 26.2557V27.5137C51.905 28.8951 50.6345 29.7459 49.1567 30.0143C49.2486 29.452 49.2969 28.8943 49.2969 28.3464V25.1687H50.8092C51.4136 25.1687 51.905 25.6564 51.905 26.2557ZM30.8639 5.66604C31.7502 5.49323 32.6848 5.41073 33.6341 5.41073C37.1075 5.41073 40.7703 6.51651 42.9283 8.35089C47.0616 11.8643 47.6295 16.1981 47.2875 20.8071C44.4114 18.0598 40.2217 18.2729 36.4344 18.4645C33.0544 18.636 29.8611 18.7968 27.6181 17.1392C25.8137 15.4965 25.6513 10.3848 26.5733 8.14714C27.2131 6.96182 28.7338 6.0812 30.8639 5.66604ZM23.8567 9.32589C23.6711 10.4892 23.6223 11.8054 23.7341 13.0957C23.852 14.4565 24.2558 16.8293 25.6048 18.4164C25.0984 20.3462 23.3148 21.1481 21.0634 21.9709C20.8284 22.0568 20.6014 22.1398 20.3837 22.2231L19.8202 17.9014C19.2659 13.6551 20.7234 10.6248 23.8567 9.32589ZM15.6489 27.5137V26.2557C15.6489 25.6564 16.1405 25.1687 16.7447 25.1687H18.2614V28.3464C18.2614 28.8942 18.3097 29.4517 18.4014 30.014C16.9186 29.7453 15.6489 28.8946 15.6489 27.5137ZM20.6052 28.3464V24.6679C20.957 24.5051 21.417 24.3368 21.8678 24.1721C23.7658 23.4785 26.482 22.4857 27.5938 19.8459C30.2708 21.1235 33.4564 20.9621 36.5531 20.8053C41.0555 20.577 44.9538 20.3825 46.9533 24.2764V28.3465C46.9533 33.1362 42.285 39.0723 36.9637 41.0493C35.7697 41.492 34.7578 41.6982 33.7792 41.6982C32.7975 41.6982 31.7841 41.492 30.5909 41.0496C25.2714 39.0731 20.6052 33.137 20.6052 28.3464ZM29.7753 43.2468C31.2383 43.7893 32.5106 44.0418 33.7792 44.0418C35.0447 44.0418 36.3155 43.7892 37.7794 43.2465C38.5133 42.9739 39.233 42.6368 39.9331 42.2487V44.7834C39.9331 47.2548 36.8363 48.5479 33.777 48.5479C30.7178 48.5479 27.6209 47.2548 27.6209 44.7834V42.2485C28.3213 42.6368 29.0413 42.974 29.7753 43.2468ZM16.6959 48.0337L25.3125 45.3768C25.5 47.0559 26.4847 48.5017 28.1369 49.491C29.6452 50.3942 31.6483 50.8917 33.777 50.8917C35.9058 50.8917 37.9088 50.3942 39.4172 49.491C41.0695 48.5017 42.0541 47.0559 42.2416 45.3767L48.3488 47.2595L45.4992 61.1468H36.8841C35.6395 61.1468 34.6272 62.1614 34.6272 63.4082V65.0071C34.6272 65.5437 34.7377 66.0548 34.9364 66.5195H20.6008C20.8617 65.9784 21.0081 65.3723 21.0081 64.7326V53.5709C21.0081 52.2335 19.9202 51.1456 18.5828 51.1456H12.7297C13.6581 49.6043 14.9856 48.5593 16.6959 48.0337ZM4.13063 61.147C3.84156 61.147 3.59734 60.9048 3.59734 60.6181V56.357C3.59734 56.0703 3.84156 55.8281 4.13063 55.8281H6.78547V61.147H4.13063ZM10.9205 66.5196C9.93281 66.5196 9.12922 65.7181 9.12922 64.7328V53.571C9.12922 53.5276 9.16734 53.4895 9.21078 53.4895H18.5827C18.6261 53.4895 18.6642 53.5276 18.6642 53.571V64.7328C18.6642 65.7181 17.8606 66.5196 16.873 66.5196H10.9205ZM36.9708 65.0075V63.4907H45.0183L44.4334 66.3414L44.3969 66.5196H38.483C37.6492 66.5196 36.9708 65.8414 36.9708 65.0075Z" fill="#262626"/>
<path id="Vector_5" d="M59.0734 56.0762C59.0156 57.1307 59.3795 58.1294 60.0984 58.8887C60.8367 59.6685 61.8525 60.098 62.9585 60.098C65.1532 60.098 67.0293 58.3498 67.1404 56.2043C67.1982 55.1494 66.8342 54.1502 66.1151 53.3905C65.3775 52.6113 64.3634 52.1823 63.26 52.1823C61.0689 52.1823 59.1907 53.9291 59.0734 56.0762ZM61.4137 56.2041C61.4634 55.2944 62.3089 54.526 63.2596 54.526C63.7128 54.526 64.1223 54.6951 64.4129 55.0018C64.6848 55.289 64.8223 55.6705 64.8 56.0794C64.7529 56.9872 63.9096 57.7541 62.9585 57.7541C62.5029 57.7541 62.0915 57.5848 61.8004 57.2773C61.5287 56.9905 61.3914 56.6094 61.4137 56.2041Z" fill="#262626"/>
</g>
</g>
</g>
<defs>
<clipPath id="clip0_5_609">
<rect width="80" height="80" fill="white"/>
</clipPath>
</defs>
</svg>
