<svg width="24" height="24" viewBox="0 0 24 24" fill="none" xmlns="http://www.w3.org/2000/svg">
<path d="M15.1514 11.8886H18.7318C20.5369 11.8886 22.0002 13.352 22.0002 15.1571C22.0002 16.0596 21.2685 16.7913 20.366 16.7913H19.112M12.7545 7.89511C12.7545 9.78106 11.2225 11.3099 9.33276 11.3099C7.443 11.3099 5.91104 9.78106 5.91104 7.89511C5.91104 6.00915 7.443 4.48029 9.33276 4.48029C11.2225 4.48029 12.7545 6.00915 12.7545 7.89511ZM9.33226 13.7491C8.29661 13.7491 7.06113 13.7491 5.90222 13.7491C3.74684 13.7491 2 15.4964 2 17.6517C2 18.7294 2.87364 19.6031 3.95133 19.6031H14.7132C15.7909 19.6031 16.6645 18.7294 16.6645 17.6517C16.6645 15.4964 14.9177 13.7491 12.7623 13.7491C11.6034 13.7491 10.3679 13.7491 9.33226 13.7491ZM19.3933 7.27654C19.3933 8.53384 18.372 9.55309 17.1122 9.55309C15.8524 9.55309 14.8311 8.53384 14.8311 7.27654C14.8311 6.01924 15.8524 4.99999 17.1122 4.99999C18.372 4.99999 19.3933 6.01924 19.3933 7.27654Z" stroke="#262626" stroke-width="1.5" stroke-linecap="round"/>
</svg>
